HIERARCHY
ROOT Hips
{
	OFFSET 0.00000 71.39831 1.34371
	CHANNELS 6 Xposition Yposition Zposition Xrotation Yrotation Zrotation
	JOINT Spine
	{
		OFFSET 0.00000 13.36812 0.47053
		CHANNELS 3 Xrotation Yrotation Zrotation
		JOINT Spine1
		{
			OFFSET 0.00000 13.84042 0.54634
			CHANNELS 3 Xrotation Yrotation Zrotation
			JOINT Spine2
			{
				OFFSET 0.00000 16.28432 -1.42547
				CHANNELS 3 Xrotation Yrotation Zrotation
				JOINT Neck
				{
					OFFSET 0.00000 18.58277 -1.71004
					CHANNELS 3 Xrotation Yrotation Zrotation
					JOINT Head
					{
						OFFSET 0.00000 6.61529 1.39417
						CHANNELS 3 Xrotation Yrotation Zrotation
						JOINT HeadTop_End
						{
							OFFSET 0.00000 21.74878 -0.03420
							CHANNELS 3 Xrotation Yrotation Zrotation
							End site
							{
								OFFSET 0.00000 21.96995 0.00000
							}
						}
						JOINT Hat
						{
							OFFSET -0.00000 27.20895 -10.09106
							CHANNELS 3 Xrotation Yrotation Zrotation
							End site
							{
								OFFSET 0.00000 21.96995 0.00000
							}
						}
						JOINT LeftHairA1
						{
							OFFSET 10.24525 17.42578 1.47291
							CHANNELS 3 Xrotation Yrotation Zrotation
							JOINT LeftHairA2
							{
								OFFSET 1.54917 -12.92062 3.59283
								CHANNELS 3 Xrotation Yrotation Zrotation
								End site
								{
									OFFSET 0.00000 3.61673 13.00654
								}
							}
						}
						JOINT LeftHairC1
						{
							OFFSET 10.24525 17.42578 -1.32092
							CHANNELS 3 Xrotation Yrotation Zrotation
							JOINT LeftHairC2
							{
								OFFSET 3.26798 -10.97659 1.04144
								CHANNELS 3 Xrotation Yrotation Zrotation
								End site
								{
									OFFSET 0.00000 1.08623 11.44859
								}
							}
						}
						JOINT RightHairA1
						{
							OFFSET -10.24520 17.42577 1.47291
							CHANNELS 3 Xrotation Yrotation Zrotation
							JOINT RightHairA2
							{
								OFFSET -1.54920 -12.92104 3.59282
								CHANNELS 3 Xrotation Yrotation Zrotation
								End site
								{
									OFFSET 0.00000 -3.61684 -13.00691
								}
							}
						}
						JOINT RightHairC1
						{
							OFFSET -10.24520 17.42577 -1.32092
							CHANNELS 3 Xrotation Yrotation Zrotation
							JOINT RightHairC2
							{
								OFFSET -3.26801 -10.97701 1.04145
								CHANNELS 3 Xrotation Yrotation Zrotation
								End site
								{
									OFFSET 0.00000 -1.08626 -11.44898
								}
							}
						}
					}
				}
				JOINT LeftShoulder
				{
					OFFSET 5.41676 15.05100 -2.84829
					CHANNELS 3 Xrotation Yrotation Zrotation
					JOINT LeftArm
					{
						OFFSET 9.83098 2.53081 -1.53683
						CHANNELS 3 Xrotation Yrotation Zrotation
						JOINT LeftForeArm
						{
							OFFSET 21.94687 -0.00003 0.00000
							CHANNELS 3 Xrotation Yrotation Zrotation
							JOINT LeftHand
							{
								OFFSET 33.89138 0.00002 -0.00000
								CHANNELS 3 Xrotation Yrotation Zrotation
								JOINT LeftHandThumb1
								{
									OFFSET 6.71687 -2.37172 3.37028
									CHANNELS 3 Xrotation Yrotation Zrotation
									JOINT LeftHandThumb2
									{
										OFFSET 2.49698 -1.43620 1.44691
										CHANNELS 3 Xrotation Yrotation Zrotation
										JOINT LeftHandThumb3
										{
											OFFSET 2.91436 -1.67625 1.68876
											CHANNELS 3 Xrotation Yrotation Zrotation
											JOINT LeftHandThumb4
											{
												OFFSET 3.11297 -1.79051 1.80386
												CHANNELS 3 Xrotation Yrotation Zrotation
												End site
												{
													OFFSET 3.11297 -1.79050 1.80385
												}
											}
										}
									}
								}
								JOINT LeftHandIndex1
								{
									OFFSET 14.19239 -0.26653 3.84665
									CHANNELS 3 Xrotation Yrotation Zrotation
									JOINT LeftHandIndex2
									{
										OFFSET 3.55173 -0.00003 -0.00004
										CHANNELS 3 Xrotation Yrotation Zrotation
										JOINT LeftHandIndex3
										{
											OFFSET 2.89418 0.00000 0.00004
											CHANNELS 3 Xrotation Yrotation Zrotation
											JOINT LeftHandIndex4
											{
												OFFSET 3.67603 0.00000 -0.00000
												CHANNELS 3 Xrotation Yrotation Zrotation
												End site
												{
													OFFSET 3.67603 0.00000 -0.00000
												}
											}
										}
									}
								}
								JOINT LeftHandMiddle1
								{
									OFFSET 13.77808 -0.01205 0.00639
									CHANNELS 3 Xrotation Yrotation Zrotation
									JOINT LeftHandMiddle2
									{
										OFFSET 3.43825 -0.00002 0.00003
										CHANNELS 3 Xrotation Yrotation Zrotation
										JOINT LeftHandMiddle3
										{
											OFFSET 3.69156 0.00003 -0.00004
											CHANNELS 3 Xrotation Yrotation Zrotation
											JOINT LeftHandMiddle4
											{
												OFFSET 4.09372 0.00000 0.00000
												CHANNELS 3 Xrotation Yrotation Zrotation
												End site
												{
													OFFSET 4.09372 0.00000 0.00000
												}
											}
										}
									}
								}
								JOINT LeftHandRing1
								{
									OFFSET 13.96767 -0.28012 -3.06108
									CHANNELS 3 Xrotation Yrotation Zrotation
									JOINT LeftHandRing2
									{
										OFFSET 3.16252 0.00000 0.00000
										CHANNELS 3 Xrotation Yrotation Zrotation
										JOINT LeftHandRing3
										{
											OFFSET 3.32438 0.00000 -0.00008
											CHANNELS 3 Xrotation Yrotation Zrotation
											JOINT LeftHandRing4
											{
												OFFSET 3.62239 0.00000 0.00000
												CHANNELS 3 Xrotation Yrotation Zrotation
												End site
												{
													OFFSET 3.62239 0.00000 0.00000
												}
											}
										}
									}
								}
								JOINT LeftHandPinky1
								{
									OFFSET 13.13299 -0.18053 -5.74049
									CHANNELS 3 Xrotation Yrotation Zrotation
									JOINT LeftHandPinky2
									{
										OFFSET 2.84917 0.00002 -0.00005
										CHANNELS 3 Xrotation Yrotation Zrotation
										JOINT LeftHandPinky3
										{
											OFFSET 2.80502 0.00005 0.00000
											CHANNELS 3 Xrotation Yrotation Zrotation
											JOINT LeftHandPinky4
											{
												OFFSET 2.84901 0.00000 0.00000
												CHANNELS 3 Xrotation Yrotation Zrotation
												End site
												{
													OFFSET 2.84901 0.00000 0.00000
												}
											}
										}
									}
								}
							}
							JOINT Left_Sleeve
							{
								OFFSET 14.49165 0.00015 -0.00000
								CHANNELS 3 Xrotation Yrotation Zrotation
								End site
								{
									OFFSET 24.19150 0.00000 0.00021
								}
							}
						}
					}
				}
				JOINT BindRightJacketString1
				{
					OFFSET -3.21979 11.92483 7.18310
					CHANNELS 3 Xrotation Yrotation Zrotation
					JOINT BindRightJacketString2
					{
						OFFSET -0.36484 -5.90401 3.18678
						CHANNELS 3 Xrotation Yrotation Zrotation
						End site
						{
							OFFSET -0.36483 -5.90411 3.18658
						}
					}
				}
				JOINT BindLeftJacketString1
				{
					OFFSET 3.21978 11.92513 7.18310
					CHANNELS 3 Xrotation Yrotation Zrotation
					JOINT BindLeftJacketString2
					{
						OFFSET 0.36485 -5.90445 3.18676
						CHANNELS 3 Xrotation Yrotation Zrotation
						End site
						{
							OFFSET 0.36485 -5.90446 3.18677
						}
					}
				}
				JOINT HairE1
				{
					OFFSET 6.23019 17.56820 -11.60982
					CHANNELS 3 Xrotation Yrotation Zrotation
					JOINT HairE2
					{
						OFFSET 0.28920 -7.17191 -1.28449
						CHANNELS 3 Xrotation Yrotation Zrotation
						End site
						{
							OFFSET 0.28920 -7.17192 -1.28449
						}
					}
				}
				JOINT HairF1
				{
					OFFSET -0.54981 17.56818 -11.60982
					CHANNELS 3 Xrotation Yrotation Zrotation
					JOINT HairF2
					{
						OFFSET 0.00000 -14.08711 -2.12751
						CHANNELS 3 Xrotation Yrotation Zrotation
						End site
						{
							OFFSET 0.00000 -14.08711 -2.12751
						}
					}
				}
				JOINT HairG1
				{
					OFFSET -7.77270 17.56818 -11.60982
					CHANNELS 3 Xrotation Yrotation Zrotation
					JOINT HairG2
					{
						OFFSET -0.29355 -6.08137 -0.91014
						CHANNELS 3 Xrotation Yrotation Zrotation
						End site
						{
							OFFSET -0.29355 -6.08136 -0.91014
						}
					}
				}
				JOINT RightShoulder
				{
					OFFSET -5.41676 15.05083 -2.84829
					CHANNELS 3 Xrotation Yrotation Zrotation
					JOINT RightArm
					{
						OFFSET -9.83095 2.53101 -1.53683
						CHANNELS 3 Xrotation Yrotation Zrotation
						JOINT RightForeArm
						{
							OFFSET -21.94690 0.00000 0.00000
							CHANNELS 3 Xrotation Yrotation Zrotation
							JOINT RightHand
							{
								OFFSET -33.89140 0.00000 0.00000
								CHANNELS 3 Xrotation Yrotation Zrotation
								JOINT RightHandThumb1
								{
									OFFSET -6.71690 -2.37201 3.37029
									CHANNELS 3 Xrotation Yrotation Zrotation
									JOINT RightHandThumb2
									{
										OFFSET -2.49689 -1.43600 1.44691
										CHANNELS 3 Xrotation Yrotation Zrotation
										JOINT RightHandThumb3
										{
											OFFSET -2.91441 -1.67598 1.68876
											CHANNELS 3 Xrotation Yrotation Zrotation
											JOINT RightHandThumb4
											{
												OFFSET -3.11300 -1.79100 1.80385
												CHANNELS 3 Xrotation Yrotation Zrotation
												End site
												{
													OFFSET -3.11301 -1.79102 1.80385
												}
											}
										}
									}
								}
								JOINT RightHandIndex1
								{
									OFFSET -14.19240 -0.26701 3.84666
									CHANNELS 3 Xrotation Yrotation Zrotation
									JOINT RightHandIndex2
									{
										OFFSET -3.55171 0.00000 -0.00004
										CHANNELS 3 Xrotation Yrotation Zrotation
										JOINT RightHandIndex3
										{
											OFFSET -2.89419 0.00000 0.00004
											CHANNELS 3 Xrotation Yrotation Zrotation
											JOINT RightHandIndex4
											{
												OFFSET -3.67601 0.00000 0.00000
												CHANNELS 3 Xrotation Yrotation Zrotation
												End site
												{
													OFFSET -3.67600 0.00000 0.00000
												}
											}
										}
									}
								}
								JOINT RightHandMiddle1
								{
									OFFSET -13.77810 -0.01201 0.00639
									CHANNELS 3 Xrotation Yrotation Zrotation
									JOINT RightHandMiddle2
									{
										OFFSET -3.43820 0.00000 0.00003
										CHANNELS 3 Xrotation Yrotation Zrotation
										JOINT RightHandMiddle3
										{
											OFFSET -3.69159 0.00000 -0.00004
											CHANNELS 3 Xrotation Yrotation Zrotation
											JOINT RightHandMiddle4
											{
												OFFSET -4.09371 0.00000 0.00000
												CHANNELS 3 Xrotation Yrotation Zrotation
												End site
												{
													OFFSET -4.09370 0.00000 0.00000
												}
											}
										}
									}
								}
								JOINT RightHandRing1
								{
									OFFSET -13.96771 -0.28001 -3.06108
									CHANNELS 3 Xrotation Yrotation Zrotation
									JOINT RightHandRing2
									{
										OFFSET -3.16249 0.00000 0.00000
										CHANNELS 3 Xrotation Yrotation Zrotation
										JOINT RightHandRing3
										{
											OFFSET -3.32441 0.00000 -0.00008
											CHANNELS 3 Xrotation Yrotation Zrotation
											JOINT RightHandRing4
											{
												OFFSET -3.62230 0.00000 0.00000
												CHANNELS 3 Xrotation Yrotation Zrotation
												End site
												{
													OFFSET -3.62230 0.00000 0.00000
												}
											}
										}
									}
								}
								JOINT RightHandPinky1
								{
									OFFSET -13.13300 -0.18100 -5.74048
									CHANNELS 3 Xrotation Yrotation Zrotation
									JOINT RightHandPinky2
									{
										OFFSET -2.84911 0.00000 -0.00005
										CHANNELS 3 Xrotation Yrotation Zrotation
										JOINT RightHandPinky3
										{
											OFFSET -2.80509 0.00000 0.00001
											CHANNELS 3 Xrotation Yrotation Zrotation
											JOINT RightHandPinky4
											{
												OFFSET -2.84900 0.00000 -0.00000
												CHANNELS 3 Xrotation Yrotation Zrotation
												End site
												{
													OFFSET -2.84900 0.00000 0.00000
												}
											}
										}
									}
								}
							}
							JOINT Right_Sleeve
							{
								OFFSET -14.49169 0.00000 0.00000
								CHANNELS 3 Xrotation Yrotation Zrotation
								End site
								{
									OFFSET -24.19154 0.00000 0.00000
								}
							}
						}
					}
				}
			}
		}
	}
	JOINT Pouch
	{
		OFFSET 0.00000 4.39455 10.84731
		CHANNELS 3 Xrotation Yrotation Zrotation
		End site
		{
			OFFSET 0.00000 10.77969 0.00000
		}
	}
	JOINT Bag
	{
		OFFSET -13.22902 4.81304 -0.59326
		CHANNELS 3 Xrotation Yrotation Zrotation
		End site
		{
			OFFSET 0.00000 10.77969 0.00000
		}
	}
	JOINT RightUpLeg
	{
		OFFSET -6.79712 -2.50851 -1.31865
		CHANNELS 3 Xrotation Yrotation Zrotation
		JOINT RightLeg
		{
			OFFSET -0.00000 -29.11340 -0.16163
			CHANNELS 3 Xrotation Yrotation Zrotation
			JOINT RightFoot
			{
				OFFSET 0.00000 -29.63301 -1.87444
				CHANNELS 3 Xrotation Yrotation Zrotation
				JOINT RightToeBase
				{
					OFFSET -3.26579 -10.13811 16.09482
					CHANNELS 3 Xrotation Yrotation Zrotation
					JOINT RightToe_End
					{
						OFFSET -1.28400 0.00175 8.24664
						CHANNELS 3 Xrotation Yrotation Zrotation
						End site
						{
							OFFSET -1.28400 0.00175 8.24664
						}
					}
				}
			}
		}
	}
	JOINT LeftUpLeg
	{
		OFFSET 6.79712 -2.50853 -1.31865
		CHANNELS 3 Xrotation Yrotation Zrotation
		JOINT LeftLeg
		{
			OFFSET 0.00000 -29.11343 -0.16163
			CHANNELS 3 Xrotation Yrotation Zrotation
			JOINT LeftFoot
			{
				OFFSET 0.00000 -29.63297 -1.87444
				CHANNELS 3 Xrotation Yrotation Zrotation
				JOINT LeftToeBase
				{
					OFFSET 3.26580 -10.13796 16.09492
					CHANNELS 3 Xrotation Yrotation Zrotation
					JOINT LeftToe_End
					{
						OFFSET 1.28398 0.00177 8.24681
						CHANNELS 3 Xrotation Yrotation Zrotation
						End site
						{
							OFFSET 1.28398 0.00178 8.24681
						}
					}
				}
			}
		}
	}
}
MOTION
Frames: 4
Frame Time: 0.033333
0.083477 82.57587 -0.156221 11.656167 3.0186841 -1.284437 9.928717 1.426465 1.2615659 7.635563 0.727779 0.069616996 7.627039 0.81916296 0.049949996 -11.286786 -1.9265229 7.4585404 -27.603376 2.0089998 -6.030529 -0.0 0.0 -0.0 0.0 0.0 0.0 0.0 0.0 0.0 0.0 0.0 0.0 0.0 0.0 0.0 0.0 0.0 0.0 0.0 0.0 0.0 0.0 0.0 0.0 0.0 0.0 0.0 0.0 0.0 0.0 3.5592105 -24.355038 2.47533 -63.439983 -19.6479 -65.67967 178.14525 -68.98756 181.97174 0.13601197 -3.7153103 14.140456 -15.246069 10.161722 26.456188 3.9380674 7.9493117 0.74758995 -0.5795959 1.5749421 2.538719 2.9999999e-06 5.9999998e-06 -0.0 -0.0 0.00057399995 9.8e-05 1.9999998e-06 -0.000685 -6.9999995e-05 3.9999995e-06 1.0999999e-05 -4.9999995e-05 -1.9999998e-06 -1.9999998e-06 -0.0 -3.9999995e-06 -0.001958 0.01607 7.999999e-06 0.001945 -0.016044 -8.999999e-06 1.19999995e-05 -4.4999997e-05 -0.0 0.0 -9.999999e-07 -1.9999998e-06 0.000475 9.7e-05 -1.9999998e-06 -0.0008839999 -0.00037099997 5.9999998e-06 1.5999998e-05 -5.0999995e-05 9.999999e-07 -3.9999995e-06 -0.0 -0.018607 4.070429 0.511382 -0.017979003 -4.0964355 -0.5118379 -9.999999e-07 0.026310997 0.00035 -0.0 2.9999999e-06 -9.999999e-07 0.0 0.0 0.0 0.0 0.0 0.0 0.0 0.0 0.0 0.0 0.0 0.0 0.0 0.0 0.0 0.0 0.0 0.0 0.0 0.0 0.0 0.0 0.0 0.0 0.0 0.0 0.0 0.0 0.0 0.0 0.0 0.0 0.0 0.7816281 11.129633 13.412944 -60.73481 41.148563 50.820763 -182.54991 74.35094 177.36328 2.2274694 -4.2243004 -38.912865 -6.947835 -5.0498276 -29.742935 4.6375494 -8.633952 -0.22633699 -1.2737801 0.13718599 -2.0948598 -3.9999995e-06 3.9999995e-06 -0.0 9.999999e-07 -0.00049999997 -0.000103 1.9999998e-06 0.00047799997 8.799999e-05 -2.9999999e-06 7.999999e-06 1.6999998e-05 -0.0 0.0 -0.0 -0.0 0.0 -0.000103 1.9999998e-06 -1e-05 8.799999e-05 -2.9999999e-06 3.9999995e-06 1.7999999e-05 -0.0 9.999999e-07 -0.0 9.999999e-07 -0.00059899996 -0.000103 2.9999999e-06 0.000893 8.799999e-05 -2.9999999e-06 8.999999e-06 1.6999998e-05 -0.0 9.999999e-07 -9.999999e-07 9.999999e-07 -0.00039799997 -0.000103 2.9999999e-06 0.0011929999 8.799999e-05 -3.9999995e-06 -0.0011979999 1.7999999e-05 -0.0 1.9999998e-06 -0.0 0.0 0.0 0.0 0.0 0.0 0.0 0.0 0.0 0.0 -54.14725 -14.634176 -6.4597297 75.5566 -8.073489 -4.701914 -33.97917 -10.06048 4.1641064 -2.9999999e-06 9.999999e-07 -2.9999999e-06 -0.0 -9.999999e-07 -0.0 -55.94631 1.6954389 4.586802 76.51857 7.7188964 -0.48370597 -31.325975 5.4929156 -5.163951 -6.9999996e-06 -9.999999e-07 -0.0 -0.0 9.999999e-07 -0.0
0.076566 82.57603 -0.172855 11.661412 3.0252297 -1.2953119 9.933294 1.436999 1.2582369 7.6432066 0.73747903 0.071527 7.634606 0.828783 0.051924996 -11.3252125 -1.9219143 7.427221 -27.471601 2.0174258 -6.0653586 -0.0 0.0 -0.0 0.0 0.0 0.0 0.0 0.0 0.0 0.0 0.0 0.0 0.0 0.0 0.0 0.0 0.0 0.0 0.0 0.0 0.0 0.0 0.0 0.0 0.0 0.0 0.0 0.0 0.0 0.0 3.5612776 -24.352173 2.4802423 -63.466312 -19.693968 -65.71593 178.14835 -69.16602 181.96857 0.031720996 -3.7019298 14.086278 -15.246067 10.161715 26.456188 3.9380665 7.9493146 0.74759096 -0.57959896 1.5749371 2.538723 3.9999995e-06 2.9999999e-06 1.9999998e-06 -0.0 0.00057 9.999999e-05 -9.999999e-07 -0.00068299996 -7.0999995e-05 6.9999996e-06 1.0999999e-05 -4.9999995e-05 1.9999998e-06 -1.9999998e-06 -1.9999998e-06 -2.9999997e-06 -0.00196 0.016072001 7.999999e-06 0.001947 -0.016045 -5.9999998e-06 6.9999996e-06 -4.5999997e-05 1.9999998e-06 -5e-06 -0.0 -1.9999998e-06 0.00046999997 9.8e-05 -0.0 -0.0008849999 -0.00037099997 7.999999e-06 1.4999999e-05 -4.9999995e-05 9.999999e-07 1.9999998e-06 -1.9999998e-06 -0.018608 4.0704265 0.5113859 -0.017974999 -4.096447 -0.51184 -0.0 0.026312 0.00035 -0.0 0.0 -2.9999999e-06 0.0 0.0 0.0 0.0 0.0 0.0 0.0 0.0 0.0 0.0 0.0 0.0 0.0 0.0 0.0 0.0 0.0 0.0 0.0 0.0 0.0 0.0 0.0 0.0 0.0 0.0 0.0 0.0 0.0 0.0 0.0 0.0 0.0 0.78757805 11.140393 13.344622 -60.71053 40.972694 50.828793 -182.54866 74.42758 177.36438 2.1467767 -4.240515 -38.93549 -6.9478364 -5.0498314 -29.742935 4.6375494 -8.633958 -0.22633699 -1.2737781 0.13718599 -2.094859 -0.0 0.0 -0.0 9.999999e-07 -0.00049899996 -0.00010199999 9.999999e-07 0.000476 8.799999e-05 -2.9999999e-06 7.999999e-06 1.6999998e-05 -0.0 1.9999998e-06 -9.999999e-07 -0.0 0.0 -0.00010199999 1.9999998e-06 -1.0999999e-05 8.799999e-05 -2.9999999e-06 5.9999998e-06 1.6999998e-05 -0.0 -9.999999e-07 -0.0 9.999999e-07 -0.000601 -0.00010199999 1.9999998e-06 0.000891 8.799999e-05 -2.9999999e-06 6.9999996e-06 1.6999998e-05 -0.0 1.9999998e-06 -0.0 9.999999e-07 -0.00039999996 -0.00010199999 2.9999999e-06 0.001196 8.799999e-05 -2.9999999e-06 -0.0011989999 1.6999998e-05 -0.0 -3.9999995e-06 9.999999e-07 0.0 0.0 0.0 0.0 0.0 0.0 0.0 0.0 0.0 -54.165257 -14.661927 -6.439974 75.549194 -8.087882 -4.736025 -33.955486 -10.043798 4.1732593 -3.9999995e-06 -9.999999e-07 -2.9999999e-06 -0.0 -9.999999e-07 -0.0 -55.964134 1.6443728 4.628968 76.52744 7.7191267 -0.5616759 -31.314947 5.449917 -5.1526904 -1.0999999e-05 -3.9999995e-06 -0.0 -0.0 9.999999e-07 -0.0
0.072736 82.5784 -0.181781 11.664494 3.015423 -1.305591 9.941582 1.4397701 1.2574049 7.652925 0.742476 0.078499 7.644386 0.833116 0.059118 -11.357768 -1.907929 7.381161 -27.422478 2.048942 -6.115855 -0.0 0.0 -0.0 0.0 0.0 0.0 0.0 0.0 0.0 0.0 0.0 0.0 0.0 0.0 0.0 0.0 0.0 0.0 0.0 0.0 0.0 0.0 0.0 0.0 0.0 0.0 0.0 0.0 0.0 0.0 3.561768 -24.34815 2.4753423 -63.36217 -19.72697 -65.73914 178.1455 -69.07667 181.97252 0.159441 -3.7663698 14.187667 -15.246069 10.161717 26.456188 3.938062 7.949311 0.7475919 -0.57959497 1.5749431 2.538719 5e-06 0.0 3.9999995e-06 -9.999999e-07 0.00057599996 9.7e-05 -9.999999e-07 -0.00068299996 -7.2999996e-05 6.9999996e-06 1.19999995e-05 -4.9999995e-05 -0.0 0.0 -9.999999e-07 -3.9999995e-06 -0.0019560002 0.01607 7.999999e-06 0.001945 -0.016047 -5.9999998e-06 1e-05 -4.2999996e-05 1.9999998e-06 0.0 -9.999999e-07 -0.0 0.000475 9.7e-05 -0.0 -0.000888 -0.00037199998 7.999999e-06 1.6999998e-05 -5.0999995e-05 9.999999e-07 -3.9999995e-06 -0.0 -0.018607 4.070429 0.51138496 -0.017976003 -4.0964427 -0.51184094 9.999999e-07 0.026309999 0.00034899998 -0.0 -2.9999999e-06 -0.0 0.0 0.0 0.0 0.0 0.0 0.0 0.0 0.0 0.0 0.0 0.0 0.0 0.0 0.0 0.0 0.0 0.0 0.0 0.0 0.0 0.0 0.0 0.0 0.0 0.0 0.0 0.0 0.0 0.0 0.0 0.0 0.0 0.0 0.78966767 11.174125 13.244869 -60.53791 40.792294 50.738194 -182.55605 74.242256 177.35611 2.218751 -4.209377 -38.91043 -6.9478345 -5.0498314 -29.74294 4.6375484 -8.63395 -0.226332 -1.2737789 0.137186 -2.0948558 -3.9999995e-06 5.9999998e-06 2.9999999e-06 9.999999e-07 -0.00049999997 -0.00010199999 1.9999998e-06 0.000477 8.799999e-05 -2.9999999e-06 5e-06 1.6999998e-05 -0.0 1.9999998e-06 -0.0 -0.0 -9.999999e-07 -0.00010199999 2.9999999e-06 -1e-05 8.8999994e-05 -2.9999999e-06 3.9999995e-06 1.6999998e-05 -0.0 -1.9999998e-06 -0.0 9.999999e-07 -0.00059999997 -0.00010199999 2.9999999e-06 0.000888 8.799999e-05 -2.9999999e-06 3.9999995e-06 1.6999998e-05 -0.0 9.999999e-07 -0.0 9.999999e-07 -0.00039999996 -0.00010199999 1.9999998e-06 0.0011909999 8.8999994e-05 -2.9999999e-06 -0.0011919999 1.6999998e-05 -0.0 -3.9999995e-06 9.999999e-07 0.0 0.0 0.0 0.0 0.0 0.0 0.0 0.0 0.0 -54.16702 -14.668155 -6.4173374 75.53612 -8.101192 -4.7419653 -33.94462 -10.036334 4.1748524 -5.9999998e-06 0.0 -1.9999998e-06 -0.0 2.9999999e-06 -0.0 -55.972862 1.6319429 4.6663046 76.528786 7.7227902 -0.59290993 -31.308704 5.4217315 -5.1507664 -8.999999e-06 5e-06 -0.0 -0.0 -9.999999e-07 -0.0
0.067501 82.57754 -0.183053 11.676816 3.0175297 -1.309515 9.944572 1.4314489 1.2528739 7.6565228 0.73866194 0.08160599 7.64815 0.828182 0.062552996 -11.383137 -1.8942342 7.3417273 -27.443079 2.08145 -6.1697216 -0.0 0.0 -0.0 0.0 0.0 0.0 0.0 0.0 0.0 0.0 0.0 0.0 0.0 0.0 0.0 0.0 0.0 0.0 0.0 0.0 0.0 0.0 0.0 0.0 0.0 0.0 0.0 0.0 0.0 0.0 3.5613835 -24.34511 2.4654427 -63.200405 -19.764044 -65.76202 178.14064 -68.8488 181.97855 0.40794194 -3.8927507 14.322585 -15.246075 10.1617155 26.456184 3.9380665 7.9493127 0.7475929 -0.57959896 1.574938 2.5387208 1.9999998e-06 1.9999998e-06 1.9999998e-06 -2.9999999e-06 0.00057 9.8e-05 -1.9999998e-06 -0.00068299996 -7.1999995e-05 5.9999998e-06 1.19999995e-05 -4.9e-05 -0.0 -1.9999998e-06 -1.9999998e-06 -6.9999996e-06 -0.00196 0.016074 6.9999996e-06 0.0019420002 -0.016045 -6.9999996e-06 1.19999995e-05 -4.7999998e-05 9.999999e-07 -2.9999999e-06 -9.999999e-07 -2.9999999e-06 0.00047099998 9.8e-05 -2.9999999e-06 -0.0008839999 -0.00037199998 3.9999995e-06 1.5999998e-05 -4.9999995e-05 1.9999998e-06 2.9999999e-06 -9.999999e-07 -0.018611 4.070429 0.51138395 -0.017976003 -4.09644 -0.51184 -0.0 0.026308998 0.00034799997 -1.9999998e-06 9.999999e-07 -0.0 0.0 0.0 0.0 0.0 0.0 0.0 0.0 0.0 0.0 0.0 0.0 0.0 0.0 0.0 0.0 0.0 0.0 0.0 0.0 0.0 0.0 0.0 0.0 0.0 0.0 0.0 0.0 0.0 0.0 0.0 0.0 0.0 0.0 0.7895263 11.1813 13.185561 -60.32107 40.67993 50.632862 -182.56808 73.93438 177.34248 2.4050894 -4.1480074 -38.886326 -6.947836 -5.0498266 -29.742939 4.637548 -8.633947 -0.22633901 -1.2737801 0.13718599 -2.094858 1.9999998e-06 -9.999999e-07 -9.999999e-07 9.999999e-07 -0.000497 -0.00010199999 9.999999e-07 0.000477 8.799999e-05 -2.9999999e-06 7.999999e-06 1.6999998e-05 -0.0 9.999999e-07 -0.0 -0.0 1.9999998e-06 -0.000103 1.9999998e-06 -5.9999998e-06 8.799999e-05 -2.9999999e-06 5e-06 1.6999998e-05 -0.0 1.9999998e-06 -0.0 9.999999e-07 -0.00059599994 -0.000103 1.9999998e-06 0.000893 8.799999e-05 -2.9999999e-06 7.999999e-06 1.6999998e-05 -0.0 9.999999e-07 9.999999e-07 9.999999e-07 -0.00039399997 -0.000103 1.9999998e-06 0.0011969999 8.799999e-05 -3.9999995e-06 -0.0011979999 1.6999998e-05 -0.0 -1.9999998e-06 -0.0 0.0 0.0 0.0 0.0 0.0 0.0 0.0 0.0 0.0 -54.173782 -14.635394 -6.418372 75.540184 -8.111024 -4.6921988 -33.953186 -10.034352 4.164478 -2.9999999e-06 -9.999999e-07 -2.9999999e-06 -0.0 -9.999999e-07 -0.0 -55.990086 1.639192 4.6787415 76.529564 7.7179384 -0.58879197 -31.30674 5.4116716 -5.152188 -8.999999e-06 9.999999e-07 -0.0 -0.0 -1.9999998e-06 -0.0
